<?xml version='1.0' encoding='UTF-8'?>
<svg xmlns="http://www.w3.org/2000/svg" width="64" height="64" viewBox="0 0 64 64" version="1.1"><g transform="translate(2.13333333333 2.13333333333) scale(1.86666666667)"><svg width="32" height="32" version="1.1" viewBox="0 0 32 32" overflow="hidden">
 <path d="m16 1c-8.2768 0-15 6.7232-15 15s6.7232 15 15 15 15-6.7232 15-15-6.7232-15-15-15z" color="#000000" fill="#ff3dfb" overflow="visible"/>
 <path d="M16 6a2 2 0 0 0-2 2c0 2 .667 6.667 1.333 12h1.334C17.333 14.667 18 10 18 8a2 2 0 0 0-2-2zm0 16a2 2 0 1 0 0 4 2 2 0 0 0 0-4z" fill="#00ABFF"/>
</svg></g></svg>