<?xml version="1.0" encoding="UTF-8" standalone="no"?>
<svg
   width="10.115558"
   height="12.499616"
   version="1.1"
   id="svg2"
   xmlns:xlink="http://www.w3.org/1999/xlink"
   xmlns="http://www.w3.org/2000/svg"
   xmlns:svg="http://www.w3.org/2000/svg">
  <defs
     id="defs2">
    <linearGradient
       id="linearGradient2">
      <stop
         style="stop-color:#00abff;stop-opacity:0;"
         offset="0"
         id="stop3" />
      <stop
         style="stop-color:#00abff;stop-opacity:1;"
         offset="1"
         id="stop2" />
    </linearGradient>
    <linearGradient
       xlink:href="#linearGradient2"
       id="linearGradient3"
       x1="8.115942"
       y1="15.507246"
       x2="8.115942"
       y2="6.9565215"
       gradientUnits="userSpaceOnUse" />
    <filter
       style="color-interpolation-filters:sRGB"
       id="filter3"
       x="-0.030375"
       y="-0.0243"
       width="1.06075"
       height="1.0486">
      <feGaussianBlur
         stdDeviation="0.12069293"
         id="feGaussianBlur3" />
    </filter>
  </defs>
  <g
     id="g2"
     transform="translate(-2.9856993,-2.1777283)">
    <path
       id="path1"
       class="ColorScheme-Text"
       d="m 8.0434782,2.4673913 c -1.7610241,0 -3.1787439,1.4177198 -3.1787439,3.1787439 v 1.589372 c -0.8805121,0 -1.589372,0.7088599 -1.589372,1.589372 v 3.9734298 c 0,0.880512 0.7088599,1.589372 1.589372,1.589372 h 6.3574877 c 0.880512,0 1.589372,-0.70886 1.589372,-1.589372 V 8.8248792 c 0,-0.8805121 -0.70886,-1.589372 -1.589372,-1.589372 v -1.589372 c 0,-1.7610241 -1.4177196,-3.1787439 -3.1787438,-3.1787439 z m 0,0.794686 c 1.3207682,0 2.3840578,1.0632898 2.3840578,2.3840579 v 1.589372 H 5.6594203 v -1.589372 c 0,-1.3207681 1.0632898,-2.3840579 2.3840579,-2.3840579 z M 4.8647343,8.0301932 h 6.3574877 c 0.440256,0 0.794686,0.35443 0.794686,0.794686 v 3.9734298 c 0,0.440256 -0.35443,0.794686 -0.794686,0.794686 H 4.8647343 c -0.4402561,0 -0.794686,-0.35443 -0.794686,-0.794686 V 8.8248792 c 0,-0.440256 0.3544299,-0.794686 0.794686,-0.794686 z"
       style="display:inline;opacity:0.6;fill:#00abff;fill-opacity:1;stroke-width:0.794686;filter:url(#filter3)" />
    <path
       id="path2"
       class="ColorScheme-Text"
       d="m 8.0434782,2.4673913 c -1.7610241,0 -3.1787439,1.4177198 -3.1787439,3.1787439 v 1.589372 c -0.8805121,0 -1.589372,0.7088599 -1.589372,1.589372 v 3.9734298 c 0,0.880512 0.7088599,1.589372 1.589372,1.589372 h 6.3574877 c 0.880512,0 1.589372,-0.70886 1.589372,-1.589372 V 8.8248792 c 0,-0.8805121 -0.70886,-1.589372 -1.589372,-1.589372 v -1.589372 c 0,-1.7610241 -1.4177196,-3.1787439 -3.1787438,-3.1787439 z m 0,0.794686 c 1.3207682,0 2.3840578,1.0632898 2.3840578,2.3840579 v 1.589372 H 5.6594203 v -1.589372 c 0,-1.3207681 1.0632898,-2.3840579 2.3840579,-2.3840579 z M 4.8647343,8.0301932 h 6.3574877 c 0.440256,0 0.794686,0.35443 0.794686,0.794686 v 3.9734298 c 0,0.440256 -0.35443,0.794686 -0.794686,0.794686 H 4.8647343 c -0.4402561,0 -0.794686,-0.35443 -0.794686,-0.794686 V 8.8248792 c 0,-0.440256 0.3544299,-0.794686 0.794686,-0.794686 z"
       style="fill:url(#linearGradient3);fill-opacity:1;stroke-width:0.794686" />
  </g>
</svg>
